<?xml version="1.0" standalone="no"?>
<!DOCTYPE svg PUBLIC "-//W3C//DTD SVG 20010904//EN"
 "http://www.w3.org/TR/2001/REC-SVG-20010904/DTD/svg10.dtd">
<svg version="1.0" xmlns="http://www.w3.org/2000/svg"
 width="900.000000pt" height="900.000000pt" viewBox="0 0 900.000000 900.000000"
 preserveAspectRatio="xMidYMid meet">

<g transform="translate(0.000000,900.000000) scale(0.100000,-0.100000)"
fill="#000000" stroke="none">
<path d="M4495 7308 c-118 -42 -225 -195 -225 -322 0 -48 4 -60 41 -107 41
-51 42 -52 25 -78 -29 -44 -79 -152 -73 -158 3 -3 20 5 36 16 71 51 340 161
392 161 34 0 54 34 73 119 9 46 16 85 14 87 -2 1 -34 -8 -70 -21 -96 -35 -154
-40 -222 -21 -73 21 -74 41 -5 96 69 54 90 59 165 35 18 -6 24 -1 34 29 16 48
15 113 -1 133 -33 39 -120 54 -184 31z"/>
<path d="M4425 6606 c-28 -13 -63 -38 -78 -56 -61 -72 -57 31 -57 -1570 l0
-1468 28 -53 c40 -76 94 -112 176 -117 35 -2 81 1 101 8 50 17 105 67 127 117
17 40 18 105 18 1517 0 1247 -2 1481 -14 1509 -31 76 -128 137 -215 137 -20 0
-59 -11 -86 -24z"/>
<path d="M5082 5294 l3 -247 100 -51 c55 -28 132 -73 170 -98 331 -222 579
-594 660 -993 32 -158 35 -258 35 -1059 0 -782 1 -811 20 -877 53 -176 233
-328 395 -333 l50 -1 3 980 c2 620 -1 1032 -8 1122 -35 484 -229 920 -560
1267 -176 184 -338 305 -555 414 -106 52 -279 122 -306 122 -6 0 -8 -98 -7
-246z"/>
<path d="M3864 5511 c-718 -259 -1215 -871 -1324 -1631 -16 -110 -16 -379 0
-500 109 -855 763 -1543 1624 -1710 158 -30 329 -40 707 -40 l349 0 0 28 c0
46 -29 144 -57 192 -41 69 -117 144 -182 178 -93 50 -156 62 -331 62 -263 1
-420 23 -608 86 -535 179 -933 637 -1037 1194 -27 140 -25 381 3 525 96 488
397 887 837 1110 l100 50 3 238 c3 269 9 252 -84 218z"/>
</g>
</svg>
